<?xml version="1.0" standalone="no"?>
<!DOCTYPE svg PUBLIC "-//W3C//DTD SVG 20010904//EN"
 "http://www.w3.org/TR/2001/REC-SVG-20010904/DTD/svg10.dtd">
<svg version="1.0" xmlns="http://www.w3.org/2000/svg"
 width="500.000000pt" height="500.000000pt" viewBox="0 0 500.000000 500.000000"
 preserveAspectRatio="xMidYMid meet">

<g transform="translate(0.000000,500.000000) scale(0.100000,-0.100000)"
fill="#000000" stroke="none">
<path d="M1078 2423 c-73 -130 -134 -240 -136 -245 -2 -4 14 -8 35 -8 37 0 39
2 80 78 23 42 85 152 137 245 l95 167 -39 0 -38 0 -134 -237z"/>
<path d="M778 2478 l-138 -51 0 -38 c0 -22 1 -39 3 -39 2 0 65 -22 141 -50 76
-27 142 -50 147 -50 5 0 9 15 9 34 l0 33 -110 34 c-60 18 -106 37 -102 40 4 4
53 22 110 39 l102 33 0 33 c0 21 -5 34 -12 33 -7 -1 -75 -24 -150 -51z"/>
<path d="M3700 2496 l0 -33 103 -33 c56 -17 105 -35 109 -39 4 -3 -42 -22
-102 -40 l-110 -34 0 -33 c0 -19 3 -34 8 -34 4 0 71 23 150 51 l142 52 0 37 0
37 -144 52 c-79 28 -147 51 -150 51 -3 0 -6 -15 -6 -34z"/>
<path d="M1623 1988 c3 -13 11 -49 17 -80 9 -45 15 -58 30 -58 14 0 20 14 30
67 14 73 22 68 35 -21 6 -35 11 -46 25 -46 20 0 22 5 41 93 12 56 6 85 -11 57
-5 -8 -12 -36 -15 -62 -4 -26 -10 -48 -15 -48 -4 0 -11 25 -15 56 -4 35 -12
57 -22 61 -20 8 -29 -9 -37 -69 -8 -62 -22 -54 -31 17 -5 40 -11 55 -22 55
-11 0 -14 -7 -10 -22z"/>
<path d="M1960 1935 c0 -73 1 -75 27 -81 34 -9 77 14 81 43 5 35 -15 62 -53
69 -25 4 -35 11 -35 25 0 11 -4 19 -10 19 -6 0 -10 -32 -10 -75z m64 9 c24 -9
21 -61 -4 -69 -11 -3 -24 -3 -30 0 -14 9 -12 62 3 68 6 3 13 6 14 6 1 1 8 -2
17 -5z"/>
<path d="M2140 1930 l0 -80 29 0 c53 0 89 19 101 54 21 65 -14 106 -89 106
l-41 0 0 -80z m92 43 c20 -18 24 -63 6 -81 -7 -7 -25 -12 -40 -12 -27 0 -28 1
-28 55 0 50 2 55 22 55 12 0 30 -7 40 -17z"/>
<path d="M2670 1930 c0 -64 3 -80 15 -80 12 0 15 16 15 80 0 64 -3 80 -15 80
-12 0 -15 -16 -15 -80z"/>
<path d="M1852 1954 c-47 -32 -14 -109 44 -102 40 5 42 26 2 25 -23 -2 -33 3
-36 16 -3 14 4 17 37 17 46 0 51 10 21 40 -24 24 -38 25 -68 4z m56 -21 c2 -8
-6 -13 -22 -13 -25 0 -33 10 -19 24 10 10 36 3 41 -11z"/>
<path d="M2323 1960 c-46 -19 -37 -93 12 -106 29 -7 68 4 59 17 -3 5 -15 7
-25 4 -20 -7 -49 9 -49 26 0 5 18 9 40 9 46 0 54 19 18 44 -25 18 -25 18 -55
6z m47 -25 c11 -13 8 -15 -20 -15 -28 0 -31 2 -20 15 7 8 16 15 20 15 4 0 13
-7 20 -15z"/>
<path d="M2573 1960 c-46 -19 -37 -93 12 -106 29 -7 68 4 59 17 -3 5 -15 7
-25 4 -20 -7 -49 9 -49 26 0 5 18 9 40 9 46 0 54 19 18 44 -25 18 -25 18 -55
6z m47 -25 c11 -13 8 -15 -20 -15 -28 0 -31 2 -20 15 7 8 16 15 20 15 4 0 13
-7 20 -15z"/>
<path d="M2753 1960 c-26 -10 -41 -56 -26 -79 31 -49 113 -29 113 28 0 43 -43
68 -87 51z m51 -26 c9 -8 16 -19 16 -24 0 -16 -33 -41 -47 -36 -8 3 -17 6 -19
6 -10 0 -3 59 9 63 20 9 25 8 41 -9z"/>
<path d="M2878 1963 c-15 -4 -18 -16 -18 -79 0 -43 4 -74 10 -74 6 0 10 9 10
20 0 14 7 20 23 20 53 0 85 53 55 93 -14 18 -53 28 -80 20z m46 -19 c24 -9 21
-61 -4 -69 -11 -3 -24 -3 -30 0 -14 9 -12 62 3 68 6 3 13 6 14 6 1 1 8 -2 17
-5z"/>
<path d="M3012 1954 c-47 -32 -14 -109 44 -102 40 5 42 26 2 25 -23 -2 -33 3
-36 16 -3 14 4 17 37 17 46 0 51 10 21 40 -24 24 -38 25 -68 4z m56 -21 c2 -8
-6 -13 -22 -13 -25 0 -33 10 -19 24 10 10 36 3 41 -11z"/>
<path d="M2423 1946 c3 -8 11 -33 18 -55 17 -59 45 -53 70 14 23 60 22 55 6
55 -8 0 -20 -21 -29 -47 l-15 -48 -14 48 c-8 27 -19 47 -27 47 -8 0 -12 -6 -9
-14z"/>
<path d="M3120 1905 c0 -30 5 -55 10 -55 6 0 10 18 10 41 0 32 4 42 20 46 30
8 24 23 -10 23 -30 0 -30 -1 -30 -55z"/>
</g>
</svg>
